<?xml version="1.0" encoding="UTF-8" standalone="no"?><!-- Generator: Gravit.io --><svg xmlns="http://www.w3.org/2000/svg" xmlns:xlink="http://www.w3.org/1999/xlink" style="isolation:isolate" viewBox="0 0 865 783.97" width="865pt" height="783.97pt"><defs><clipPath id="_clipPath_DYfyzfw979qtzSubj2MA6g98mKNwpWgU"><rect width="865" height="783.97"/></clipPath></defs><g clip-path="url(#_clipPath_DYfyzfw979qtzSubj2MA6g98mKNwpWgU)"><g><ellipse vector-effect="non-scaling-stroke" cx="432.50000000000006" cy="743.3894602076674" rx="421.0316398535038" ry="31.301020613401306" fill="rgb(232,255,232)"/><path d="M 129.192 9.28 L 596.498 9.28 C 602.636 9.28 607.62 14.264 607.62 20.402 L 607.62 726.068 C 607.62 732.206 602.636 737.19 596.498 737.19 L 129.192 737.19 C 123.054 737.19 118.07 732.206 118.07 726.068 L 118.07 20.402 C 118.07 14.264 123.054 9.28 129.192 9.28 Z" style="stroke:none;fill:#3A3768;stroke-miterlimit:10;"/><g style="mix-blend-mode:normal;" opacity="0.1"><path d="M 196.031 71.85 L 535.719 71.85 C 554.016 71.85 568.87 86.704 568.87 105.001 L 568.87 181.799 C 568.87 200.096 554.016 214.95 535.719 214.95 L 196.031 214.95 C 177.734 214.95 162.88 200.096 162.88 181.799 L 162.88 105.001 C 162.88 86.704 177.734 71.85 196.031 71.85 Z" style="stroke:none;fill:#000000;stroke-miterlimit:10;"/></g><path d="M 177.066 74.64 L 553.754 74.64 C 560.143 74.64 565.33 79.827 565.33 86.216 L 565.33 201.464 C 565.33 207.853 560.143 213.04 553.754 213.04 L 177.066 213.04 C 170.677 213.04 165.49 207.853 165.49 201.464 L 165.49 86.216 C 165.49 79.827 170.677 74.64 177.066 74.64 Z" style="stroke:none;fill:#E6E8EC;stroke-miterlimit:10;"/><g style="mix-blend-mode:normal;" opacity="0.1"><path d="M 189.266 274.56 L 245.514 274.56 C 252.273 274.56 257.76 280.047 257.76 286.805 L 257.76 352.015 C 257.76 358.773 252.273 364.26 245.514 364.26 L 189.266 364.26 C 182.507 364.26 177.02 358.773 177.02 352.015 L 177.02 286.805 C 177.02 280.047 182.507 274.56 189.266 274.56 Z" style="stroke:none;fill:#000000;stroke-miterlimit:10;"/></g><g style="mix-blend-mode:normal;" opacity="0.1"><path d="M 287.946 274.56 L 344.194 274.56 C 350.953 274.56 356.44 280.047 356.44 286.805 L 356.44 352.015 C 356.44 358.773 350.953 364.26 344.194 364.26 L 287.946 364.26 C 281.187 364.26 275.7 358.773 275.7 352.015 L 275.7 286.805 C 275.7 280.047 281.187 274.56 287.946 274.56 Z" style="stroke:none;fill:#000000;stroke-miterlimit:10;"/></g><g style="mix-blend-mode:normal;" opacity="0.1"><path d="M 386.626 274.56 L 442.874 274.56 C 449.633 274.56 455.12 280.047 455.12 286.805 L 455.12 352.015 C 455.12 358.773 449.633 364.26 442.874 364.26 L 386.626 364.26 C 379.867 364.26 374.38 358.773 374.38 352.015 L 374.38 286.805 C 374.38 280.047 379.867 274.56 386.626 274.56 Z" style="stroke:none;fill:#000000;stroke-miterlimit:10;"/></g><g style="mix-blend-mode:normal;" opacity="0.1"><path d="M 505.792 276.46 L 521.068 276.46 C 539.133 276.46 553.8 291.127 553.8 309.193 L 553.8 333.437 C 553.8 351.503 539.133 366.17 521.068 366.17 L 505.792 366.17 C 487.727 366.17 473.06 351.503 473.06 333.437 L 473.06 309.193 C 473.06 291.127 487.727 276.46 505.792 276.46 Z" style="stroke:none;fill:#000000;stroke-miterlimit:10;"/></g><path d="M 485.306 274.56 L 541.554 274.56 C 548.313 274.56 553.8 280.047 553.8 286.805 L 553.8 352.015 C 553.8 358.773 548.313 364.26 541.554 364.26 L 485.306 364.26 C 478.547 364.26 473.06 358.773 473.06 352.015 L 473.06 286.805 C 473.06 280.047 478.547 274.56 485.306 274.56 Z" style="stroke:none;fill:#B4FFB4;stroke-miterlimit:10;"/><g style="mix-blend-mode:normal;" opacity="0.1"><path d="M 189.266 373.24 L 245.514 373.24 C 252.273 373.24 257.76 378.727 257.76 385.485 L 257.76 450.695 C 257.76 457.453 252.273 462.94 245.514 462.94 L 189.266 462.94 C 182.507 462.94 177.02 457.453 177.02 450.695 L 177.02 385.485 C 177.02 378.727 182.507 373.24 189.266 373.24 Z" style="stroke:none;fill:#000000;stroke-miterlimit:10;"/></g><g style="mix-blend-mode:normal;" opacity="0.1"><path d="M 287.946 373.24 L 344.194 373.24 C 350.953 373.24 356.44 378.727 356.44 385.485 L 356.44 450.695 C 356.44 457.453 350.953 462.94 344.194 462.94 L 287.946 462.94 C 281.187 462.94 275.7 457.453 275.7 450.695 L 275.7 385.485 C 275.7 378.727 281.187 373.24 287.946 373.24 Z" style="stroke:none;fill:#000000;stroke-miterlimit:10;"/></g><g style="mix-blend-mode:normal;" opacity="0.1"><path d="M 386.626 373.24 L 442.874 373.24 C 449.633 373.24 455.12 378.727 455.12 385.485 L 455.12 450.695 C 455.12 457.453 449.633 462.94 442.874 462.94 L 386.626 462.94 C 379.867 462.94 374.38 457.453 374.38 450.695 L 374.38 385.485 C 374.38 378.727 379.867 373.24 386.626 373.24 Z" style="stroke:none;fill:#000000;stroke-miterlimit:10;"/></g><g style="mix-blend-mode:normal;" opacity="0.1"><path d="M 189.266 482.17 L 245.514 482.17 C 252.273 482.17 257.76 487.657 257.76 494.415 L 257.76 559.625 C 257.76 566.383 252.273 571.87 245.514 571.87 L 189.266 571.87 C 182.507 571.87 177.02 566.383 177.02 559.625 L 177.02 494.415 C 177.02 487.657 182.507 482.17 189.266 482.17 Z" style="stroke:none;fill:#000000;stroke-miterlimit:10;"/></g><g style="mix-blend-mode:normal;" opacity="0.1"><path d="M 287.946 482.17 L 344.194 482.17 C 350.953 482.17 356.44 487.657 356.44 494.415 L 356.44 559.625 C 356.44 566.383 350.953 571.87 344.194 571.87 L 287.946 571.87 C 281.187 571.87 275.7 566.383 275.7 559.625 L 275.7 494.415 C 275.7 487.657 281.187 482.17 287.946 482.17 Z" style="stroke:none;fill:#000000;stroke-miterlimit:10;"/></g><g style="mix-blend-mode:normal;" opacity="0.1"><path d="M 386.626 482.17 L 442.874 482.17 C 449.633 482.17 455.12 487.657 455.12 494.415 L 455.12 559.625 C 455.12 566.383 449.633 571.87 442.874 571.87 L 386.626 571.87 C 379.867 571.87 374.38 566.383 374.38 559.625 L 374.38 494.415 C 374.38 487.657 379.867 482.17 386.626 482.17 Z" style="stroke:none;fill:#000000;stroke-miterlimit:10;"/></g><g style="mix-blend-mode:normal;" opacity="0.1"><path d="M 386.626 591.09 L 442.874 591.09 C 449.633 591.09 455.12 596.578 455.12 603.337 L 455.12 668.553 C 455.12 675.312 449.633 680.8 442.874 680.8 L 386.626 680.8 C 379.867 680.8 374.38 675.312 374.38 668.553 L 374.38 603.337 C 374.38 596.578 379.867 591.09 386.626 591.09 Z" style="stroke:none;fill:#000000;stroke-miterlimit:10;"/></g><g style="mix-blend-mode:normal;" opacity="0.1"><path d="M 505.792 375.14 L 521.068 375.14 C 539.133 375.14 553.8 389.807 553.8 407.873 L 553.8 432.117 C 553.8 450.183 539.133 464.85 521.068 464.85 L 505.792 464.85 C 487.727 464.85 473.06 450.183 473.06 432.117 L 473.06 407.873 C 473.06 389.807 487.727 375.14 505.792 375.14 Z" style="stroke:none;fill:#000000;stroke-miterlimit:10;"/></g><path d="M 485.885 373.24 L 540.975 373.24 C 548.053 373.24 553.8 378.986 553.8 386.064 L 553.8 450.116 C 553.8 457.194 548.053 462.94 540.975 462.94 L 485.885 462.94 C 478.807 462.94 473.06 457.194 473.06 450.116 L 473.06 386.064 C 473.06 378.986 478.807 373.24 485.885 373.24 Z" style="stroke:none;fill:#B4FFB4;stroke-miterlimit:10;"/><g style="mix-blend-mode:normal;" opacity="0.2"><path d="M 485.885 373.24 L 540.975 373.24 C 548.053 373.24 553.8 378.986 553.8 386.064 L 553.8 450.116 C 553.8 457.194 548.053 462.94 540.975 462.94 L 485.885 462.94 C 478.807 462.94 473.06 457.194 473.06 450.116 L 473.06 386.064 C 473.06 378.986 478.807 373.24 485.885 373.24 Z" style="stroke:none;fill:#000000;stroke-miterlimit:10;"/></g><g style="mix-blend-mode:normal;" opacity="0.1"><path d="M 188.415 591.09 L 345.045 591.09 C 351.334 591.09 356.44 596.196 356.44 602.485 L 356.44 669.405 C 356.44 675.694 351.334 680.8 345.045 680.8 L 188.415 680.8 C 182.126 680.8 177.02 675.694 177.02 669.405 L 177.02 602.485 C 177.02 596.196 182.126 591.09 188.415 591.09 Z" style="stroke:none;fill:#000000;stroke-miterlimit:10;"/></g><g style="mix-blend-mode:normal;" opacity="0.1"><path d="M 478.603 482.17 L 540.557 482.17 C 547.861 482.17 553.79 488.099 553.79 495.403 L 553.79 667.577 C 553.79 674.881 547.861 680.81 540.557 680.81 L 478.603 680.81 C 471.299 680.81 465.37 674.881 465.37 667.577 L 465.37 495.403 C 465.37 488.099 471.299 482.17 478.603 482.17 Z" style="stroke:none;fill:#000000;stroke-miterlimit:10;"/></g><rect x="512.035" y="188.869" width="35.341" height="3.825" transform="matrix(1,0,0,1,0,0)" fill="rgb(180,255,180)"/><rect x="460.294" y="188.869" width="35.341" height="3.825" transform="matrix(1,0,0,1,0,0)" fill="rgb(180,255,180)"/><rect x="408.542" y="188.869" width="35.341" height="3.825" transform="matrix(1,0,0,1,0,0)" fill="rgb(180,255,180)"/><rect x="356.801" y="188.869" width="35.341" height="3.825" transform="matrix(1,0,0,1,0,0)" fill="rgb(180,255,180)"/><linearGradient id="_lgradient_0" x1="0.5000226957717255" y1="1.0000330959322068" x2="0.5000226957717256" y2="-0.0000036825406173335296" gradientTransform="matrix(235.476,0,0,457.786,539.209,294.077)" gradientUnits="userSpaceOnUse"><stop offset="0%" stop-opacity="0.25" style="stop-color:rgb(128,128,128)"/><stop offset="54%" stop-opacity="0.12" style="stop-color:rgb(128,128,128)"/><stop offset="100%" stop-opacity="0.1" style="stop-color:rgb(128,128,128)"/></linearGradient><path d=" M 773.066 457.345 C 776.709 445.088 773.066 432.831 773.066 432.831 L 773.066 421.266 C 773.066 421.266 777.231 398.658 758.641 384.154 L 746.316 373.282 C 746.316 373.282 739.404 367.346 737.396 366.971 C 737.021 366.891 736.642 366.834 736.261 366.801 L 735.897 366.586 C 734.838 364.774 733.935 362.875 733.196 360.911 C 734.814 361.12 736.436 360.567 737.588 359.413 C 738.034 358.901 738.384 358.312 738.621 357.676 L 738.621 357.676 C 739.336 356.076 739.461 354.136 740.063 352.433 C 740.59 351.053 741.359 349.777 742.332 348.665 C 742.208 348.869 742.071 349.062 741.958 349.278 C 743.706 347.099 745.987 345.238 747.633 342.945 C 747.959 342.49 748.258 342.017 748.529 341.527 C 748.461 341.629 748.37 341.72 748.291 341.822 C 750.561 338.179 751.253 333.764 751.911 329.508 C 752.228 328.059 752.252 326.562 751.979 325.104 C 751.66 324.137 751.25 323.202 750.754 322.312 C 748.075 316.785 748.121 309.828 743.842 305.414 C 740.619 302.111 735.739 301.101 731.142 300.533 C 726.546 299.966 721.711 299.637 717.761 297.231 C 716.659 296.395 715.439 295.726 714.141 295.245 C 712.794 294.775 711.304 295.327 710.589 296.561 C 710.507 296.915 710.344 297.246 710.112 297.526 C 709.695 297.762 709.192 297.792 708.75 297.605 L 702.633 295.971 L 702.701 296.277 L 702.542 296.277 L 702.769 297.242 C 703.016 297.199 703.259 297.337 703.348 297.571 L 702.361 299.092 C 700.468 299.057 698.598 298.673 696.845 297.957 C 696.834 298.055 696.834 298.154 696.845 298.252 L 696.754 298.252 C 696.641 299.977 698.604 301.101 699.206 302.724 C 699.447 303.434 699.447 304.204 699.206 304.914 C 698.96 305.573 698.572 306.169 698.071 306.662 C 695.903 308.807 693.122 308.387 690.626 309.738 C 690.189 309.924 689.857 310.294 689.718 310.748 C 689.619 310.915 689.59 311.115 689.638 311.304 C 689.737 311.564 689.916 311.787 690.149 311.939 C 690.876 312.527 691.673 313.022 692.521 313.415 C 692.271 313.642 692.033 313.869 691.806 314.107 C 685.369 320.648 682.642 329.982 684.544 338.959 C 686.446 347.937 692.724 355.363 701.26 358.732 C 701.351 359.209 701.419 359.697 701.487 360.207 C 701.487 360.264 701.487 360.298 701.487 360.355 L 701.555 361.013 L 693.315 364.52 C 690.778 364.5 688.48 363.02 687.414 360.718 C 685.496 356.757 678.72 360.718 678.72 360.718 C 678.72 360.718 658.053 359.175 650.347 362.988 C 650.347 362.988 638.011 357.813 636.274 357.461 C 634.538 357.109 631.939 355.736 630.725 356.088 C 629.51 356.439 627.944 353.818 627.07 354.011 C 626.196 354.204 625.856 352.286 623.075 351.593 C 620.295 350.901 619.251 351.775 616.13 348.665 C 613.009 345.556 587.632 333.298 587.632 333.298 L 576.237 323.924 L 564.082 314.255 L 563.867 314.652 C 563.787 314.368 563.708 314.073 563.628 313.755 C 562.419 308.938 560.903 304.203 559.089 299.58 C 558.306 297.707 557.954 295.347 556.898 296.595 C 556.251 297.344 555.151 295.699 553.494 294.586 C 552.782 294.095 551.887 293.95 551.057 294.192 C 550.227 294.435 549.55 295.038 549.215 295.835 L 549.215 295.835 C 539.75 310.68 536.356 311.724 541.838 317.183 C 546.729 322.029 549.975 326.262 553.959 327.601 L 554.436 327.749 C 554.35 327.771 554.26 327.771 554.174 327.749 L 577.281 355.373 C 577.281 355.373 593.953 369.877 605.427 374.53 C 605.427 374.53 616.016 380.579 616.016 380.579 C 616.016 380.579 650.767 398.182 656.147 397.841 C 656.147 397.841 660.494 433.92 658.235 439.833 C 658.235 439.833 652.333 488.169 652.333 488.169 C 652.333 488.169 648.849 497.146 652.504 503.354 C 652.504 503.354 653.31 515.248 652.583 518.108 C 649.417 522.989 644.9 531.273 644.162 539.797 C 644.162 540.251 644.071 540.671 644.026 541.113 C 643.794 541.382 643.518 541.609 643.209 541.783 L 643.98 541.556 C 643.652 545.108 642.89 548.607 641.711 551.974 C 639.873 556.703 638.901 561.724 638.839 566.796 L 638.839 594.216 L 636.569 611.24 C 636.569 611.24 633.789 624.121 636.569 627.129 C 637.742 628.628 638.287 630.524 638.09 632.417 C 637.974 634.615 638.597 636.789 639.861 638.591 C 640.84 639.66 641.26 641.127 640.996 642.552 C 640.076 645.537 642.358 677.303 642.358 677.303 C 642.358 677.303 641.688 686.053 640.769 686.519 C 639.849 686.984 642.358 696.642 642.358 696.642 C 642.358 696.642 632.972 704.473 635.366 708.616 L 637.761 712.293 L 637.126 712.917 L 636.74 713.314 C 636.016 712.897 635.172 712.737 634.345 712.86 C 631.395 715.878 628.24 718.688 624.903 721.27 C 620.669 724.323 609.15 728.749 609.15 728.749 L 600.071 729.487 L 599.9 729.487 C 599.9 729.487 595.554 729.078 597.994 735.808 C 597.994 735.808 622.247 740.473 622.247 740.473 L 634.981 738.464 C 634.981 738.464 657.679 738.577 664.182 737.136 C 666.894 736.535 667.587 735.082 667.36 733.618 L 667.36 733.618 L 667.292 733.55 C 666.98 732.153 666.342 730.851 665.43 729.748 C 665.384 729.675 665.33 729.607 665.272 729.543 L 665.68 724.89 C 675.316 719.341 662.956 708.423 662.956 708.423 C 662.956 708.423 667.19 699.218 669.357 696.234 C 671.525 693.249 671.525 649.271 671.525 649.271 C 671.525 649.271 672.66 633.382 669.675 629.705 C 669.57 627.265 670.818 624.966 672.921 623.724 C 675.066 622.26 681.546 602.092 686.631 585.352 L 689.831 605.077 C 689.831 605.077 689.139 614.52 691.216 617.277 C 692.005 618.329 692.318 619.662 692.078 620.955 C 691.586 623.601 691.745 626.328 692.544 628.899 C 692.788 630.002 693.381 630.997 694.235 631.736 C 696.085 632.656 696.198 635.935 696.89 636.628 C 697.583 637.32 701.873 635.652 702.1 638.183 C 702.229 640.405 702.229 642.633 702.1 644.856 L 703.496 685.826 C 703.496 685.826 701.226 689.231 700.715 698.311 C 700.522 702.181 699.796 704.382 699.047 705.642 C 698.194 707.029 698.332 708.807 699.387 710.046 L 699.784 710.511 L 698.071 711.827 C 696.651 712.93 696.205 714.881 697.004 716.492 C 695.873 717.476 695.455 719.049 695.948 720.464 C 696.019 720.692 696.118 720.909 696.243 721.111 C 694.942 721.315 693.733 721.913 692.782 722.825 C 691.07 725.177 689.007 727.251 686.665 728.976 C 683.266 731.581 680.011 734.369 676.916 737.329 C 675.457 739.315 673.499 740.881 671.241 741.869 C 670.688 742.093 670.114 742.264 669.527 742.379 C 664.988 743.31 666.406 748.054 670.106 748.837 C 673.806 749.62 686.086 753.377 695.642 751.186 C 695.642 751.186 698.479 752.321 702.644 750.21 C 706.81 748.099 716.104 745.512 716.104 745.512 C 716.104 745.512 721.314 745.512 722.017 743.446 C 722.201 742.788 722.3 742.109 722.312 741.426 L 722.46 741.279 L 722.324 741.154 C 722.337 739.607 722.219 738.062 721.972 736.535 C 721.836 735.74 721.688 735.036 721.552 734.469 C 721.109 732.744 720.281 730.508 719.929 729.566 C 719.989 729.491 720.042 729.412 720.088 729.328 C 722.074 725.923 718.772 717.842 718.772 717.842 C 719.856 716.122 721.174 714.56 722.687 713.201 C 724.537 711.816 729.406 675.907 729.406 675.907 C 729.406 675.907 729.167 666.703 731.676 662.561 C 734.184 658.418 728.203 633.337 728.203 633.337 C 728.203 633.337 725.649 627.582 726.58 625.506 C 727.51 623.429 725.649 615.836 725.649 615.836 L 725.649 606.757 C 725.644 605.676 725.464 604.603 725.116 603.579 C 724.401 601.445 723.345 597.348 724.492 594.409 C 726.114 590.266 729.814 564.719 729.814 564.719 C 729.814 564.719 726.92 553.45 731.165 544.472 C 731.496 543.756 731.875 543.062 732.3 542.396 C 735.443 537.459 734.502 528.686 732.947 521.615 C 732.72 520.48 732.459 519.459 732.198 518.472 C 732.095 518.04 731.982 517.632 731.868 517.223 L 732.368 517.019 C 732.368 517.019 732.368 516.349 732.527 515.203 C 735.991 514.517 739.015 512.425 740.88 509.426 C 740.88 509.426 751.48 497.51 760.854 492.505 C 760.854 492.505 770.932 480.248 770.932 480.248 C 769.548 477.83 773.418 467.99 773.418 467.99 L 773.066 457.345 Z  M 736.124 366.971 M 742.491 473.234 L 732.459 484.867 L 732.459 484.799 C 729.848 481.167 734.887 473.052 734.887 473.052 L 743.229 454.44 C 743.161 456.823 742.866 458.979 742.094 459.921 C 739.824 463.031 746.271 468.217 746.271 468.217 C 742.832 468.229 742.491 473.234 742.491 473.234 L 742.491 473.234 Z " fill="url(#_lgradient_0)"/><path d=" M 565.853 320.712 L 560.371 331.346 C 558.636 331.198 556.925 330.84 555.275 330.28 C 549.988 328.701 545.629 324.933 543.302 319.929 C 538.41 309.125 546.502 302.145 550.27 300.079 C 554.038 298.014 557.545 295.665 560.371 302.44 C 562.145 307.037 563.627 311.741 564.809 316.524 C 565.467 319.01 565.853 320.712 565.853 320.712 Z " fill="rgb(204,129,140)"/><path d=" M 739.938 376.028 L 731.188 389.057 C 731.188 389.057 689.843 408.782 697.742 385.652 C 701.214 375.438 701.623 367.981 700.999 362.818 C 700.999 362.761 700.999 362.727 700.999 362.67 C 700.182 356.212 697.753 353.409 697.753 353.409 C 697.753 353.409 738.054 332.776 732.05 346.883 C 730.825 349.815 730.338 353.003 730.631 356.167 C 731.126 360.724 732.606 365.119 734.967 369.048 C 736.386 371.535 738.051 373.874 739.938 376.028 L 739.938 376.028 Z " fill="rgb(204,129,140)"/><path d=" M 727.352 634.12 C 727.352 634.12 733.298 659.088 730.756 663.162 C 730.756 663.162 728.486 676.429 728.486 676.429 C 728.486 676.429 723.686 712.111 721.859 713.473 C 720.359 714.8 719.049 716.328 717.966 718.013 C 717.966 718.013 721.234 726.093 719.271 729.43 C 718.968 729.938 718.511 730.336 717.966 730.565 C 714.901 731.859 703.575 726.116 697.129 722.62 C 696.075 722.044 695.369 720.99 695.238 719.796 C 695.107 718.602 695.567 717.419 696.47 716.628 C 695.671 715.033 696.108 713.095 697.515 711.998 L 699.217 710.681 L 698.82 710.216 C 697.775 708.981 697.638 707.216 698.479 705.835 C 699.217 704.598 699.932 702.43 700.125 698.56 C 700.59 689.64 702.871 686.212 702.871 686.212 L 701.498 645.491 C 701.628 643.284 701.628 641.071 701.498 638.864 C 701.271 636.355 697.038 638.012 696.357 637.32 C 695.676 636.628 695.551 633.382 693.724 632.463 C 692.882 631.723 692.301 630.732 692.067 629.637 C 691.259 627.067 691.099 624.338 691.602 621.692 C 691.839 620.409 691.531 619.084 690.75 618.038 C 688.696 615.291 689.377 605.928 689.377 605.928 L 686.222 586.317 C 681.194 602.955 674.805 622.997 672.683 624.45 C 670.608 625.692 669.38 627.97 669.482 630.386 C 672.456 634.052 671.309 649.838 671.309 649.838 C 671.309 649.838 671.309 693.51 669.164 696.495 C 667.019 699.48 662.866 708.661 662.866 708.661 C 662.866 708.661 675.123 719.568 665.476 725.072 L 665.374 725.072 C 655.534 730.565 635.185 715.244 635.185 715.244 L 637.307 713.121 L 637.931 712.497 L 635.525 708.911 C 633.165 704.791 642.426 697.017 642.426 697.017 C 642.426 697.017 639.952 687.404 640.859 686.95 C 641.767 686.496 642.426 677.803 642.426 677.803 C 642.426 677.803 640.156 646.241 641.086 643.267 C 641.338 641.849 640.919 640.395 639.952 639.329 C 638.702 637.538 638.087 635.381 638.204 633.2 C 638.402 631.319 637.86 629.435 636.694 627.946 C 633.948 624.972 636.694 612.17 636.694 612.17 L 638.964 595.237 L 638.964 568.351 C 638.995 563.161 639.968 558.02 641.836 553.177 C 643.222 549.252 644.062 545.154 644.332 541 C 645.081 532.329 649.746 523.908 652.878 519.107 C 654.535 516.565 655.772 515.044 655.772 515.044 L 728.952 512.184 C 728.952 512.184 730.087 515.441 731.312 519.97 C 731.562 520.957 731.812 522.001 732.05 523.091 C 733.582 530.127 734.502 538.843 731.403 543.746 C 730.983 544.411 730.604 545.101 730.268 545.812 C 726.08 554.732 728.94 565.934 728.94 565.934 C 728.94 565.934 725.286 591.311 723.686 595.442 C 722.551 598.358 723.595 602.433 724.31 604.521 C 724.644 605.543 724.816 606.612 724.821 607.687 L 724.821 616.733 C 724.821 616.733 726.659 624.28 725.74 626.345 C 724.821 628.411 727.352 634.12 727.352 634.12 Z " fill="rgb(68,64,83)"/><g opacity="0.1"><path d=" M 730.722 544.472 C 730.298 545.131 729.919 545.817 729.587 546.527 L 725.468 546.3 C 725.865 544.177 723.062 524.282 723.062 524.282 L 731.358 523.817 C 732.89 530.842 733.821 539.558 730.722 544.472 Z " fill="rgb(0,0,0)"/></g><path d=" M 731.403 543.78 C 730.983 544.445 730.604 545.135 730.268 545.846 L 726.149 545.607 C 726.546 543.496 723.742 523.59 723.742 523.59 L 732.039 523.125 C 733.582 530.161 734.502 538.877 731.403 543.78 Z " fill="rgb(68,64,83)"/><g opacity="0.05"><path d=" M 731.403 543.78 C 730.983 544.445 730.604 545.135 730.268 545.846 L 726.149 545.607 C 726.546 543.496 723.742 523.59 723.742 523.59 L 732.039 523.125 C 733.582 530.161 734.502 538.877 731.403 543.78 Z " fill="rgb(0,0,0)"/></g><g opacity="0.1"><path d=" M 719.282 729.475 C 718.98 729.983 718.522 730.381 717.977 730.61 C 714.913 731.904 703.586 726.161 697.14 722.666 C 696.335 722.221 695.725 721.493 695.426 720.623 C 699.103 719.953 701.509 724.028 701.509 724.028 C 702.748 723.251 704.247 723.007 705.668 723.351 C 707.089 723.695 708.311 724.598 709.057 725.855 C 712.2 730.485 718.942 728.533 718.942 728.533 L 719.282 729.475 Z " fill="rgb(0,0,0)"/></g><path d=" M 721.178 743.492 C 720.497 745.557 715.344 745.557 715.344 745.557 C 715.344 745.557 706.14 748.19 702.02 750.244 C 697.9 752.299 695.109 751.22 695.109 751.22 C 685.677 753.388 673.545 749.62 669.891 748.871 C 666.236 748.122 664.806 743.389 669.323 742.47 C 669.902 742.351 670.469 742.176 671.014 741.948 C 673.277 740.969 675.237 739.401 676.689 737.408 C 679.747 734.469 682.963 731.699 686.324 729.112 C 688.638 727.394 690.674 725.331 692.362 722.995 C 697.742 718.251 701.566 724.765 701.566 724.765 C 702.806 723.99 704.306 723.748 705.727 724.094 C 707.148 724.44 708.369 725.345 709.113 726.604 C 712.257 731.234 718.999 729.271 718.999 729.271 C 718.999 729.271 720.213 732.369 720.78 734.594 C 720.917 735.161 721.064 735.865 721.2 736.659 C 721.507 738.963 721.7 741.948 721.178 743.492 Z " fill="rgb(255,116,143)"/><circle vector-effect="non-scaling-stroke" cx="705.4476235505085" cy="728.4085511396144" r="0.6242045445021631" fill="rgb(87,89,136)"/><circle vector-effect="non-scaling-stroke" cx="700.0794644677896" cy="733.436235016241" r="0.6242045445021631" fill="rgb(87,89,136)"/><circle vector-effect="non-scaling-stroke" cx="694.6205119967794" cy="737.9532060837297" r="0.6242045445021631" fill="rgb(87,89,136)"/><circle vector-effect="non-scaling-stroke" cx="697.446456207344" cy="735.9330531942497" r="0.6242045445021631" fill="rgb(87,89,136)"/><circle vector-effect="non-scaling-stroke" cx="702.8827103312813" cy="730.7691792351859" r="0.6242045445021631" fill="rgb(87,89,136)"/><path d=" M 721.178 743.492 C 720.497 745.557 715.344 745.557 715.344 745.557 C 715.344 745.557 706.14 748.19 702.02 750.244 C 697.9 752.299 695.109 751.22 695.109 751.22 C 685.677 753.388 673.545 749.62 669.891 748.871 C 666.236 748.122 664.806 743.389 669.323 742.47 C 669.902 742.351 670.469 742.176 671.014 741.948 C 675.003 743.322 679.17 744.113 683.385 744.297 C 692.703 744.695 700.079 744.297 700.079 744.297 L 709.511 741.267 C 711.296 740.184 713.279 739.467 715.344 739.156 C 717.432 738.731 719.408 737.872 721.144 736.637 C 721.507 738.963 721.7 741.948 721.178 743.492 Z " fill="rgb(220,230,242)"/><g opacity="0.5"><path d=" M 697.707 749.405 C 697.182 749.408 696.657 749.359 696.141 749.257 L 696.277 748.587 C 698.206 748.883 700.179 748.606 701.952 747.793 C 702.792 747.464 703.632 747.067 704.449 746.658 C 705.266 746.249 706.412 745.739 707.434 745.364 L 708.364 745.046 C 708.875 744.865 709.397 744.695 709.896 744.479 C 710.18 744.365 710.464 744.229 710.736 744.093 C 711.406 743.743 712.115 743.472 712.847 743.287 C 713.223 743.217 713.601 743.168 713.982 743.14 C 714.332 743.116 714.681 743.075 715.026 743.015 C 715.713 742.841 716.379 742.594 717.012 742.277 C 717.69 741.929 718.406 741.662 719.146 741.483 L 719.645 741.403 C 720.184 741.39 720.703 741.198 721.121 740.859 L 721.632 741.324 C 721.111 741.781 720.451 742.049 719.759 742.084 L 719.282 742.164 C 718.594 742.332 717.928 742.58 717.296 742.901 C 716.616 743.24 715.9 743.502 715.163 743.685 C 714.788 743.758 714.409 743.804 714.028 743.821 C 713.67 743.847 713.314 743.893 712.961 743.957 C 712.279 744.133 711.62 744.389 710.997 744.717 L 710.135 745.115 C 709.613 745.33 709.068 745.512 708.546 745.693 L 707.638 746.011 C 706.639 746.374 705.663 746.84 704.71 747.282 C 703.757 747.725 703.03 748.077 702.168 748.417 C 700.755 749.02 699.243 749.355 697.707 749.405 L 697.707 749.405 Z " fill="rgb(87,89,136)"/></g><g opacity="0.1"><path d=" M 699.909 635.777 C 699.909 635.777 704.653 628.967 712.779 628.967 C 712.779 628.967 724.378 628.048 724.378 628.048 C 724.378 628.048 719.18 631.135 715.582 631.532 C 711.985 631.929 699.909 635.777 699.909 635.777 Z " fill="rgb(0,0,0)"/></g><g opacity="0.1"><path d=" M 702.656 637.377 C 702.656 637.377 706.946 634.403 709.397 634.29 C 709.397 634.29 713.937 633.949 713.937 633.949 C 712.787 634.756 711.515 635.373 710.169 635.777 C 708.16 636.344 702.656 637.377 702.656 637.377 Z " fill="rgb(0,0,0)"/></g><g opacity="0.1"><path d=" M 703.62 639.431 C 703.62 639.431 710.078 639.942 710.135 641.701" fill="rgb(0,0,0)"/></g><g opacity="0.1"><path d=" M 643.39 542.963 C 643.731 543.02 649.508 536.959 649.905 534.565 C 650.22 533.049 651.121 531.719 652.413 530.865 C 652.413 530.865 656.135 532.352 652.822 536.914 C 649.508 541.476 643.39 542.963 643.39 542.963 Z " fill="rgb(0,0,0)"/></g><g opacity="0.1"><path d=" M 731.993 346.861 C 730.677 349.97 729.519 350.265 729.724 353.228 C 728.192 354.851 726.429 356.239 724.492 357.347 C 720.406 359.776 715.957 364.531 710.873 364.531 C 707.466 364.534 704.089 363.895 700.919 362.647 C 700.102 356.19 697.673 353.386 697.673 353.386 C 697.673 353.386 737.986 332.754 731.993 346.861 Z " fill="rgb(0,0,0)"/></g><path d=" M 738.167 335.886 C 738.167 350.929 725.972 363.124 710.929 363.124 C 695.886 363.124 683.691 350.929 683.691 335.886 C 683.691 320.843 695.886 308.648 710.929 308.648 C 725.972 308.648 738.167 320.843 738.167 335.886 Z " fill="rgb(204,129,140)"/><g opacity="0.1"><path d=" M 739.938 376.028 L 731.188 389.057 C 731.188 389.057 689.843 408.782 697.742 385.652 C 701.214 375.438 701.623 367.981 700.999 362.818 L 701.067 362.818 C 701.556 364.529 701.834 366.294 701.895 368.072 C 702.02 371.636 702.111 376.142 710.975 377.628 C 725.729 380.102 733.605 370.887 734.99 369.082 C 736.404 371.557 738.061 373.883 739.938 376.028 Z " fill="rgb(0,0,0)"/></g><g opacity="0.1"><path d=" M 565.853 320.712 L 560.371 331.346 C 558.636 331.198 556.925 330.84 555.275 330.28 L 554.799 329.712 C 557.069 330.575 564.57 316.331 564.57 316.331 L 564.809 316.524 C 565.467 319.01 565.853 320.712 565.853 320.712 Z " fill="rgb(0,0,0)"/></g><g opacity="0.1"><path d=" M 731.312 520.004 C 713.653 527.676 652.572 521.139 652.572 521.139 C 652.754 520.488 652.857 519.817 652.878 519.141 C 654.535 516.599 655.772 515.078 655.772 515.078 L 728.952 512.218 C 728.952 512.218 730.143 515.475 731.312 520.004 Z " fill="rgb(0,0,0)"/></g><path d=" M 701.021 363.453 L 692.873 366.937 C 690.362 366.916 688.092 365.442 687.051 363.158 C 685.155 359.22 678.471 363.158 678.471 363.158 C 678.471 363.158 658.042 361.615 650.506 365.428 C 650.506 365.428 638.329 360.275 636.615 359.935 C 634.901 359.594 632.325 358.221 631.122 358.562 C 629.919 358.902 628.387 356.292 627.524 356.507 C 626.662 356.723 626.321 354.794 623.575 354.101 C 620.828 353.409 619.807 354.272 616.765 351.185 C 613.724 348.098 588.631 335.92 588.631 335.92 L 577.281 326.659 L 565.274 317.058 C 565.274 317.058 557.727 331.29 555.491 330.427 L 578.303 357.881 C 578.303 357.881 594.77 372.283 606.097 376.913 C 606.097 376.913 616.561 382.917 616.561 382.917 C 616.561 382.917 650.869 400.417 656.181 400.077 C 661.492 399.736 660.494 435.884 658.224 441.717 C 655.954 447.551 652.402 489.747 652.402 489.747 C 652.402 489.747 648.997 498.667 652.572 504.841 C 652.572 504.841 653.423 517.541 652.572 519.765 C 652.572 519.765 714.028 526.337 731.471 518.562 C 731.471 518.562 734.048 490.087 731.471 486.49 C 728.895 482.892 733.877 474.868 733.877 474.868 L 744.852 450.342 L 771.613 423.411 C 771.613 423.411 775.722 400.939 757.37 386.537 L 745.192 375.722 C 745.192 375.722 738.383 369.831 736.385 369.457 C 736.385 369.457 735.126 369.457 735.126 369.457 C 735.126 369.457 727.181 381.044 710.884 378.298 C 702.054 376.811 701.963 372.306 701.805 368.753 C 701.758 366.961 701.495 365.182 701.021 363.453 Z " fill="rgb(103,100,126)"/><g opacity="0.1"><path d=" M 734.558 455.79 C 734.558 455.79 696.811 457.334 689.275 469.193 C 689.275 469.193 699.058 464.552 707.797 465.925 C 716.536 467.298 734.558 455.79 734.558 455.79 Z " fill="rgb(0,0,0)"/></g><g opacity="0.1"><path d=" M 692.873 497.124 C 692.873 497.124 710.714 498.327 714.493 494.547 C 714.493 494.547 718.284 488.544 718.284 488.544 L 692.873 497.124 Z " fill="rgb(0,0,0)"/></g><g opacity="0.1"><path d=" M 738.167 419.416 C 738.167 419.416 723.062 437.257 741.425 444.974 L 738.167 419.416 Z " fill="rgb(0,0,0)"/></g><g opacity="0.1"><path d=" M 648.793 384.949 C 648.793 384.949 654.286 396.15 657.032 396.888 L 648.793 384.949 Z " fill="rgb(0,0,0)"/></g><g opacity="0.1"><path d=" M 630.271 380.136 C 630.271 380.136 643.992 392.496 646.568 393.687 C 646.568 393.687 632.325 380.136 630.271 380.136 Z " fill="rgb(0,0,0)"/></g><g opacity="0.1"><path d=" M 684.985 368.311 C 684.985 368.311 671.775 388.035 680.355 400.088 C 680.355 400.043 675.554 385.8 684.985 368.311 Z " fill="rgb(0,0,0)"/></g><path d=" M 718.284 517.711 L 714.243 521.513 L 713.676 522.035 L 709 526.461 C 708.671 526.711 708.342 526.961 708.001 527.188 C 688.969 540.807 685.155 520.106 685.155 520.106 C 685.155 520.106 676.757 525.599 675.554 521.139 C 674.351 516.678 695.109 510.334 698.252 510.675 C 698.528 510.703 698.805 510.703 699.081 510.675 C 700.581 510.425 702.025 509.914 703.348 509.165 L 704.267 508.677 C 705.324 508.082 706.351 507.434 707.343 506.736 L 718.284 517.711 Z " fill="rgb(204,129,140)"/><g opacity="0.1"><path d=" M 738.803 335.886 C 738.823 345.497 733.777 354.408 725.524 359.333 C 725.144 358.696 724.81 358.032 724.526 357.347 C 723.55 355.077 722.948 352.626 721.961 350.345 C 720.881 347.855 719.341 345.59 717.421 343.672 C 717.096 343.291 716.677 343.002 716.207 342.832 C 715.315 342.709 714.411 342.959 713.71 343.524 C 712.554 344.307 711.266 344.872 709.908 345.192 C 708.526 345.509 707.078 345.079 706.095 344.057 C 705.028 342.786 705.175 340.925 705.482 339.302 C 706.151 335.75 707.263 332.254 707.275 328.645 C 707.286 325.036 705.902 321.155 702.735 319.362 C 699.966 317.784 696.527 318.227 693.452 317.341 C 692.975 317.217 692.509 317.057 692.056 316.865 C 699.79 308.926 711.564 306.466 721.831 310.643 C 732.097 314.821 738.808 324.802 738.803 335.886 Z " fill="rgb(0,0,0)"/></g><path d=" M 690.194 312.507 C 689.706 312.768 689.162 313.244 689.309 313.789 C 689.403 314.049 689.578 314.272 689.808 314.425 C 691.079 315.45 692.547 316.204 694.121 316.638 C 697.197 317.478 700.647 317.08 703.416 318.658 C 706.548 320.44 707.956 324.333 707.956 327.942 C 707.956 331.551 706.821 335.046 706.174 338.587 C 705.868 340.221 705.709 342.083 706.775 343.354 C 707.763 344.369 709.207 344.799 710.589 344.489 C 711.947 344.175 713.236 343.613 714.391 342.832 C 715.095 342.263 716.002 342.009 716.899 342.128 C 717.366 342.306 717.782 342.594 718.113 342.968 C 720.034 344.89 721.574 347.158 722.653 349.653 C 723.652 351.922 724.242 354.362 725.218 356.655 C 726.068 358.993 727.663 360.987 729.758 362.33 C 731.937 363.533 734.955 363.465 736.635 361.603 C 738.315 359.742 738.179 357.188 738.973 354.953 C 740.335 351.06 744.137 348.62 746.52 345.26 C 749.187 341.481 749.925 336.737 750.651 332.164 C 750.974 330.723 750.997 329.232 750.719 327.783 C 750.408 326.823 750.005 325.896 749.516 325.014 C 746.861 319.521 746.918 312.609 742.707 308.228 C 739.529 304.937 734.706 303.938 730.166 303.371 C 725.626 302.803 720.86 302.485 716.967 300.091 C 715.876 299.265 714.672 298.601 713.392 298.116 C 712.055 297.646 710.573 298.2 709.874 299.432 C 709.794 299.782 709.635 300.108 709.408 300.386 C 708.996 300.624 708.495 300.653 708.058 300.465 L 702.02 298.842 L 702.712 301.884 C 700.518 301.976 698.33 301.589 696.3 300.749 C 696.187 302.474 698.127 303.586 698.729 305.198 C 699.171 306.693 698.732 308.309 697.594 309.374 C 695.404 311.576 692.668 311.156 690.194 312.507 Z " fill="rgb(88,82,104)"/><g opacity="0.1"><path d=" M 665.726 722.348 L 665.476 725.083 L 665.374 725.083 C 655.534 730.576 635.185 715.255 635.185 715.255 L 637.307 713.133 C 638.011 713.914 638.35 714.958 638.238 716.004 L 642.392 716.231 L 647.363 721.599 C 647.363 721.599 660.811 723.154 664.454 722.291 L 665.726 722.348 Z " fill="rgb(0,0,0)"/></g><path d=" M 664 737.261 C 657.6 738.691 635.185 738.589 635.185 738.589 L 622.61 740.575 C 622.61 740.575 601.047 742.64 598.652 735.944 C 598.652 735.944 600.536 729.668 600.536 729.668 L 600.706 729.668 L 609.683 728.942 C 609.683 728.942 621.032 724.538 625.243 721.508 C 628.538 718.943 631.652 716.152 634.561 713.155 C 634.561 713.155 638.306 712.429 638.238 716.764 L 642.392 716.991 L 647.363 722.371 C 647.363 722.371 660.811 723.926 664.454 723.052 L 665.726 723.052 L 665.147 729.691 L 665.306 729.884 C 666.168 730.928 669.72 735.99 664 737.261 Z " fill="rgb(255,116,143)"/><circle vector-effect="non-scaling-stroke" cx="640.7913819136168" cy="720.6230180936412" r="0.6242045445021631" fill="rgb(87,89,136)"/><circle vector-effect="non-scaling-stroke" cx="624.6642063183872" cy="727.6141089920658" r="0.6242045445021631" fill="rgb(87,89,136)"/><circle vector-effect="non-scaling-stroke" cx="616.3566112897397" cy="730.1336255171474" r="0.6242045445021631" fill="rgb(87,89,136)"/><circle vector-effect="non-scaling-stroke" cx="628.8974480474658" cy="726.2749065147699" r="0.6242045445021631" fill="rgb(87,89,136)"/><circle vector-effect="non-scaling-stroke" cx="620.4990596305272" cy="728.8738672546067" r="0.6242045445021631" fill="rgb(87,89,136)"/><circle vector-effect="non-scaling-stroke" cx="633.1760864706898" cy="724.2888011458994" r="0.6242045445021631" fill="rgb(87,89,136)"/><circle vector-effect="non-scaling-stroke" cx="637.4093281997684" cy="722.4502350330023" r="0.6242045445021631" fill="rgb(87,89,136)"/><path d=" M 664 737.261 C 657.6 738.691 635.185 738.589 635.185 738.589 L 622.61 740.575 C 622.61 740.575 601.047 742.64 598.652 735.944 C 598.652 735.944 600.536 729.668 600.536 729.668 L 600.706 729.668 C 602.079 731.45 604.837 733.47 610.251 733.572 L 625.754 734.197 L 641.813 733.062 C 641.813 733.062 656.862 732.619 659.313 732.097 C 661.372 731.543 663.378 730.806 665.306 729.895 C 666.168 730.928 669.72 735.99 664 737.261 Z " fill="rgb(220,230,242)"/><g opacity="0.5"><path d=" M 623.824 739.065 C 622.966 739.077 622.111 738.97 621.282 738.748 L 621.464 738.089 C 623.579 738.544 625.776 738.446 627.842 737.806 C 628.602 737.601 629.351 737.386 630.112 737.159 C 631.485 736.723 632.884 736.371 634.3 736.103 C 636.587 735.806 638.899 735.738 641.2 735.899 L 641.688 735.899 C 648.564 736.26 655.459 735.953 662.275 734.98 C 663.893 734.868 665.434 734.248 666.679 733.209 L 667.167 733.697 C 665.822 734.84 664.149 735.527 662.389 735.661 C 655.527 736.639 648.587 736.947 641.665 736.58 L 641.166 736.58 C 638.895 736.421 636.614 736.489 634.356 736.784 C 632.971 737.043 631.602 737.388 630.259 737.817 C 629.499 738.044 628.739 738.271 627.99 738.464 C 626.631 738.834 625.232 739.036 623.824 739.065 Z " fill="rgb(87,89,136)"/></g><g opacity="0.1"><path d=" M 718.284 517.711 L 714.243 521.513 L 704.211 508.666 C 705.268 508.071 706.294 507.423 707.286 506.725 L 718.284 517.711 Z " fill="rgb(0,0,0)"/></g><path d=" M 763.771 412.448 L 771.715 423.422 L 771.715 434.919 C 771.715 434.919 775.313 447.097 771.715 459.274 L 772.101 469.908 C 772.101 469.908 768.277 479.68 769.65 482.086 C 769.65 482.086 768.969 489.293 759.708 494.264 C 750.447 499.235 739.938 511.015 739.938 511.015 C 739.938 511.015 735.988 518.562 725.354 516.849 L 715.231 521.139 L 703.575 506.214 L 719.35 497.634 C 719.35 497.634 724.843 490.269 728.101 490.609 L 741.481 474.993 C 741.481 474.993 741.822 470.022 745.249 470.022 C 745.249 470.022 738.905 464.881 741.129 461.794 C 743.354 458.707 741.481 444.974 741.481 444.974 L 763.771 412.448 Z " fill="rgb(103,100,126)"/><g opacity="0.1"><path d=" M 749.017 462.475 C 749.017 462.475 767.028 462.134 769.253 466.765 C 771.477 471.395 754.453 459.898 749.017 462.475 Z " fill="rgb(0,0,0)"/></g><g opacity="0.1"><path d=" M 713.755 521.139 C 713.757 521.439 713.731 521.74 713.676 522.035 C 713.248 524.883 710.877 527.036 708.001 527.188 L 707.683 527.188 C 706.076 527.188 704.535 526.549 703.398 525.413 C 702.261 524.276 701.623 522.735 701.623 521.127 C 701.624 520.458 701.739 519.794 701.963 519.164 C 699.103 516.894 698.945 512.718 699.024 510.652 C 700.524 510.403 701.968 509.892 703.291 509.143 C 704.038 511.287 705.04 513.333 706.276 515.237 C 706.737 515.128 707.209 515.071 707.683 515.067 C 709.294 515.067 710.838 515.706 711.977 516.845 C 713.116 517.984 713.755 519.528 713.755 521.139 Z " fill="rgb(0,0,0)"/></g><path d=" M 703.836 507.781 C 703.836 507.781 699.773 508.7 699.773 509.438 C 699.773 509.438 698.854 516.871 703.314 519.652 C 703.314 519.652 707.32 515.816 707.32 515.816 C 707.32 515.816 703.484 509.937 703.836 507.781 Z " fill="rgb(87,89,136)"/><circle vector-effect="non-scaling-stroke" cx="708.3643611493646" cy="521.1385948442737" r="6.060458668439537" fill="rgb(228,170,180)"/><circle vector-effect="non-scaling-stroke" cx="708.3643611493644" cy="521.1385948442736" r="5.197921479672914" fill="rgb(220,230,242)"/><g opacity="0.1"><path d=" M 684.758 523.488 C 684.758 523.488 697.571 534.111 714.028 527.369 L 714.028 532.522 C 714.028 532.522 703.053 540.069 693.111 535.495 C 683.169 530.922 684.758 523.488 684.758 523.488 Z " fill="rgb(0,0,0)"/></g><g opacity="0.1"><path d=" M 684.758 522.115 C 684.758 522.115 697.571 532.749 714.028 525.996 L 714.028 531.149 C 714.028 531.149 703.053 538.696 693.111 534.122 C 683.169 529.548 684.758 522.115 684.758 522.115 Z " fill="rgb(0,0,0)"/></g><path d=" M 684.758 522.115 C 684.758 522.115 697.571 532.749 714.028 525.996 L 714.028 531.149 C 714.028 531.149 703.053 538.696 693.111 534.122 C 683.169 529.548 684.758 522.115 684.758 522.115 Z " fill="rgb(68,64,83)"/><g opacity="0.05"><path d=" M 685.099 522.115 C 685.099 522.115 697.912 532.749 714.379 525.996 L 714.379 531.149 C 714.379 531.149 703.405 538.696 693.452 534.122 C 683.498 529.548 685.099 522.115 685.099 522.115 Z " fill="rgb(0,0,0)"/></g><g opacity="0.1"><path d=" M 644.503 713.133 C 644.503 713.133 661.663 716.288 664.171 716.969 C 664.171 716.969 663.49 718.853 663.49 718.853 C 663.49 718.853 647.828 716.049 644.503 713.133 Z " fill="rgb(0,0,0)"/></g><g opacity="0.1"><path d=" M 644.105 704.042 C 644.389 704.042 655.772 700.841 658.224 695.36" fill="rgb(0,0,0)"/></g><g opacity="0.1"><path d=" M 660.709 638.41 C 660.709 638.41 665.317 644.47 668.29 644.3 C 671.264 644.13 663.41 638.183 660.709 638.41 Z " fill="rgb(0,0,0)"/></g><g opacity="0.1"><path d=" M 663.263 648.51 C 663.263 648.51 665.203 652.789 668.063 651.416" fill="rgb(0,0,0)"/></g><g opacity="0.05"><path d=" M 674.113 554.312 L 686.279 586.396 C 686.279 586.396 687.993 565.752 684.372 559.578 C 682.271 555.973 678.267 553.917 674.113 554.312 L 674.113 554.312 Z " fill="rgb(0,0,0)"/></g><g style="opacity:0.1;"><g opacity="0.1"><path d=" M 704.006 300.091 L 703.904 299.625 L 701.952 299.103 L 702.168 300.057 C 702.779 300.102 703.393 300.113 704.006 300.091 L 704.006 300.091 Z " fill="rgb(0,0,0)"/></g><g opacity="0.1"><path d=" M 698.638 307.831 L 698.842 307.649 C 699.983 306.585 700.422 304.968 699.977 303.473 C 699.741 302.904 699.411 302.378 699.001 301.918 C 698.04 301.728 697.098 301.451 696.187 301.089 C 696.073 302.803 698.003 303.915 698.604 305.527 C 698.883 306.268 698.895 307.082 698.638 307.831 L 698.638 307.831 Z " fill="rgb(0,0,0)"/></g><g opacity="0.1"><path d=" M 731.085 360.57 C 728.97 359.237 727.354 357.242 726.489 354.896 C 725.524 352.626 724.923 350.175 723.935 347.905 C 722.857 345.41 721.317 343.142 719.396 341.22 C 719.068 340.843 718.65 340.554 718.181 340.38 C 717.29 340.263 716.388 340.513 715.685 341.073 C 714.529 341.855 713.241 342.421 711.883 342.741 C 710.501 343.053 709.056 342.623 708.069 341.606 C 707.002 340.335 707.15 338.462 707.456 336.839 C 708.126 333.298 709.238 329.792 709.25 326.194 C 709.261 322.596 707.876 318.692 704.71 316.91 C 701.941 315.333 698.502 315.775 695.426 314.89 C 693.849 314.456 692.377 313.703 691.102 312.677 C 691.021 312.611 690.945 312.539 690.875 312.461 C 690.617 312.56 690.367 312.678 690.126 312.813 C 689.627 313.074 689.093 313.551 689.23 314.096 C 689.332 314.354 689.51 314.575 689.74 314.731 C 691.01 315.759 692.478 316.513 694.053 316.944 C 697.129 317.784 700.567 317.387 703.337 318.964 C 706.469 320.746 707.876 324.639 707.876 328.248 C 707.876 331.857 706.741 335.353 706.083 338.894 C 705.777 340.528 705.629 342.389 706.696 343.66 C 707.682 344.678 709.127 345.108 710.509 344.795 C 711.868 344.481 713.157 343.919 714.311 343.138 C 715.012 342.57 715.915 342.316 716.808 342.435 C 717.276 342.609 717.694 342.898 718.023 343.274 C 719.939 345.2 721.479 347.467 722.562 349.959 C 723.561 352.229 724.151 354.669 725.127 356.961 C 725.977 359.299 727.572 361.293 729.667 362.636 C 731.834 363.839 734.865 363.771 736.476 361.91 C 736.923 361.404 737.269 360.819 737.498 360.185 C 735.628 361.579 733.109 361.73 731.085 360.57 Z " fill="rgb(0,0,0)"/></g><g opacity="0.1"><path d=" M 740.891 351.843 C 742.605 349.675 744.863 347.825 746.475 345.556 C 746.793 345.102 747.088 344.625 747.36 344.148 C 745.283 346.793 742.435 348.892 740.891 351.843 Z " fill="rgb(0,0,0)"/></g></g></g></g></svg>